<svg width="31" height="59" viewBox="0 0 31 59" fill="none" xmlns="http://www.w3.org/2000/svg">
<path d="M12.6 1.22C12.6 1.06 12.52 0.94 12.41 0.94H11.03C10.93 0.94 10.84 1.06 10.84 1.22V1.46C10.84 1.62 10.93 1.74 11.03 1.74H11.4V10.72C11.4 10.88 11.48 11 11.58 11H11.86C11.96 11 12.05 10.88 12.05 10.72V1.74H12.41C12.52 1.74 12.6 1.62 12.6 1.46V1.22ZM14.1269 0.94C14.0269 0.94 13.9469 1.06 13.9469 1.22V5.66H13.4769V1.22C13.4769 1.06 13.3969 0.94 13.2969 0.94H13.0169C12.9169 0.94 12.8369 1.06 12.8369 1.22V10.72C12.8369 10.88 12.9169 11 13.0169 11H13.2969C13.3969 11 13.4769 10.88 13.4769 10.72V6.45H13.9469V10.72C13.9469 10.88 14.0269 11 14.1269 11H14.4069C14.5069 11 14.5869 10.88 14.5869 10.72V1.22C14.5869 1.06 14.5069 0.94 14.4069 0.94H14.1269ZM16.6041 1.74C16.7041 1.74 16.7841 1.62 16.7841 1.46V1.22C16.7841 1.06 16.7041 0.94 16.6041 0.94H15.2141C15.1141 0.94 15.0341 1.06 15.0341 1.22V10.72C15.0341 10.88 15.1141 11 15.2141 11H16.6041C16.7041 11 16.7841 10.88 16.7841 10.72V10.48C16.7841 10.33 16.7041 10.21 16.6041 10.21H15.6741V6.45H16.0441C16.1441 6.45 16.2341 6.33 16.2341 6.17V5.93C16.2341 5.78 16.1441 5.66 16.0441 5.66H15.6741V1.74H16.6041Z" fill="#5C5C5C"/>
<path d="M5.1 28.13L5.61 14.69C5.61 14.21 5.34 13.82 5.04 13.82H4.23C3.9 13.82 3.66 14.18 3.66 14.63L3.15 28.07C3.12 28.4 2.79 28.7 2.34 28.7H2.04V14.66C2.04 14.18 1.8 13.82 1.5 13.82H0.66C0.36 13.82 0.12 14.18 0.12 14.66V43.16C0.12 43.64 0.36 44 0.66 44H1.5C1.8 44 2.04 43.64 2.04 43.16V31.07H2.82C3.3 31.07 3.66 31.34 3.66 31.64V43.16C3.66 43.64 3.9 44 4.23 44H5.04C5.34 44 5.61 43.64 5.61 43.16V31.64C5.61 30.83 5.28 29.99 4.71 29.45C4.92 29.09 5.04 28.67 5.1 28.13ZM8.80617 14.66C8.80617 14.18 8.56617 13.82 8.26617 13.82H7.42617C7.12617 13.82 6.85617 14.18 6.85617 14.66V43.16C6.85617 43.64 7.12617 44 7.42617 44H8.26617C8.56617 44 8.80617 43.64 8.80617 43.16V14.66ZM14.7945 26.03C15.1245 26.03 15.3645 25.67 15.3645 25.19L15.4245 16.61C15.4245 14.96 14.2245 13.67 12.6345 13.67C11.1045 13.67 9.93445 14.96 9.93445 16.61V41.18C9.93445 42.86 11.1045 44.18 12.6345 44.18C14.2245 44.18 15.4245 42.86 15.4245 41.18L15.3645 33.14C15.3645 32.66 15.1245 32.3 14.7945 32.3H14.0745C13.7745 32.3 13.5345 32.66 13.5345 33.14L13.4745 41.18C13.4745 41.51 13.1145 41.78 12.6345 41.78C12.2145 41.78 11.8545 41.51 11.8545 41.18V16.61C11.8545 16.34 12.2145 16.04 12.6345 16.04C13.1145 16.04 13.4745 16.34 13.4745 16.61L13.5345 25.19C13.5345 25.67 13.7745 26.03 14.0745 26.03H14.7945ZM21.7406 28.13L22.2506 14.69C22.2506 14.21 21.9806 13.82 21.6806 13.82H20.8706C20.5406 13.82 20.3006 14.18 20.3006 14.63L19.7906 28.07C19.7606 28.4 19.4306 28.7 18.9806 28.7H18.6806V14.66C18.6806 14.18 18.4406 13.82 18.1406 13.82H17.3006C17.0006 13.82 16.7606 14.18 16.7606 14.66V43.16C16.7606 43.64 17.0006 44 17.3006 44H18.1406C18.4406 44 18.6806 43.64 18.6806 43.16V31.07H19.4606C19.9406 31.07 20.3006 31.34 20.3006 31.64V43.16C20.3006 43.64 20.5406 44 20.8706 44H21.6806C21.9806 44 22.2506 43.64 22.2506 43.16V31.64C22.2506 30.83 21.9206 29.99 21.3506 29.45C21.5606 29.09 21.6806 28.67 21.7406 28.13ZM26.3768 27.92C25.8968 27.83 25.5068 27.65 25.5068 27.41V16.61C25.5068 16.34 25.8668 16.04 26.2868 16.04C26.7368 16.04 27.0668 16.34 27.0668 16.61L27.1268 25.19C27.1268 25.67 27.3668 26.03 27.6968 26.03H28.4168C28.7168 26.03 28.9568 25.67 28.9568 25.19L29.0168 16.61C29.0168 14.96 27.9068 13.67 26.2868 13.67C24.6968 13.67 23.5868 14.96 23.5868 16.61V27.41C23.5868 29.06 24.6968 30.14 26.2268 30.35C26.7068 30.41 27.0668 30.65 27.0668 30.98V41.18C27.0668 41.48 26.7368 41.72 26.2868 41.72C25.8668 41.72 25.5068 41.48 25.5068 41.18L25.4768 33.14C25.4768 32.66 25.2068 32.3 24.9068 32.3H24.1868C23.8868 32.3 23.6468 32.66 23.6468 33.14L23.5868 41.18C23.5868 42.86 24.6968 44.12 26.2868 44.12C27.9068 44.12 29.0168 42.86 29.0168 41.18V30.98C29.0168 29.24 27.8768 28.1 26.3768 27.92Z" fill="black"/>
<path d="M9.97 51.64C9.81 51.61 9.68 51.55 9.68 51.47V47.87C9.68 47.78 9.8 47.68 9.94 47.68C10.09 47.68 10.2 47.78 10.2 47.87L10.22 50.73C10.22 50.89 10.3 51.01 10.41 51.01H10.65C10.75 51.01 10.83 50.89 10.83 50.73L10.85 47.87C10.85 47.32 10.48 46.89 9.94 46.89C9.41 46.89 9.04 47.32 9.04 47.87V51.47C9.04 52.02 9.41 52.38 9.92 52.45C10.08 52.47 10.2 52.55 10.2 52.66V56.06C10.2 56.16 10.09 56.24 9.94 56.24C9.8 56.24 9.68 56.16 9.68 56.06L9.67 53.38C9.67 53.22 9.58 53.1 9.48 53.1H9.24C9.14 53.1 9.06 53.22 9.06 53.38L9.04 56.06C9.04 56.62 9.41 57.04 9.94 57.04C10.48 57.04 10.85 56.62 10.85 56.06V52.66C10.85 52.08 10.47 51.7 9.97 51.64ZM12.8559 47.22C12.8559 47.06 12.7759 46.94 12.6659 46.94H11.2859C11.1859 46.94 11.0959 47.06 11.0959 47.22V47.46C11.0959 47.62 11.1859 47.74 11.2859 47.74H11.6559V56.72C11.6559 56.88 11.7359 57 11.8359 57H12.1159C12.2159 57 12.3059 56.88 12.3059 56.72V47.74H12.6659C12.7759 47.74 12.8559 47.62 12.8559 47.46V47.22ZM13.9927 46.89C13.4627 46.89 13.0927 47.32 13.0927 47.87V56.06C13.0927 56.62 13.4627 57.06 13.9927 57.06C14.5227 57.06 14.9227 56.62 14.9227 56.06V47.87C14.9227 47.32 14.5227 46.89 13.9927 46.89ZM13.9927 56.26C13.8527 56.26 13.7327 56.17 13.7327 56.06V47.87C13.7327 47.78 13.8527 47.68 13.9927 47.68C14.1527 47.68 14.2727 47.78 14.2727 47.87V56.06C14.2727 56.17 14.1527 56.26 13.9927 56.26ZM17.0881 57C17.1981 57 17.2781 56.86 17.2681 56.69L16.8481 52.26C17.0481 52.09 17.1981 51.79 17.1981 51.47V47.94C17.1981 47.38 16.7981 46.94 16.2881 46.94H15.5481C15.4481 46.94 15.3681 47.06 15.3681 47.22V56.72C15.3681 56.88 15.4481 57 15.5481 57H15.8281C15.9281 57 16.0181 56.88 16.0181 56.72V52.45C16.1781 52.45 16.2581 52.44 16.2981 52.42L16.6381 56.75C16.6481 56.89 16.7381 57 16.8281 57H17.0881ZM16.2881 51.66H16.0181V47.74H16.2881C16.4281 47.74 16.5481 47.84 16.5481 47.94V51.47C16.5481 51.56 16.4281 51.66 16.2881 51.66ZM19.194 47.74C19.294 47.74 19.374 47.62 19.374 47.46V47.22C19.374 47.06 19.294 46.94 19.194 46.94H17.804C17.704 46.94 17.624 47.06 17.624 47.22V56.72C17.624 56.88 17.704 57 17.804 57H19.194C19.294 57 19.374 56.88 19.374 56.72V56.48C19.374 56.33 19.294 56.21 19.194 56.21H18.264V52.45H18.634C18.734 52.45 18.824 52.33 18.824 52.17V51.93C18.824 51.78 18.734 51.66 18.634 51.66H18.264V47.74H19.194Z" fill="#5C5C5C"/>
</svg>
